<svg width="480" height="602" viewBox="0 0 480 602" fill="none" xmlns="http://www.w3.org/2000/svg">
<circle cx="193.22" cy="53.4856" r="52.576" fill="#16224A" stroke="url(#paint0_linear_485_1682)" stroke-width="1.81924"/>
<circle cx="388.962" cy="53.4856" r="52.576" fill="#16224A" stroke="url(#paint1_linear_485_1682)" stroke-width="1.81924"/>
<path d="M193.653 27.3869L200.747 29.5286L211.589 31.938L224.038 40.9062L216.14 52.4177L211.589 48.8037V81.8657H175.448L174.779 48.8037L170.63 52.4177L163 39.5677L175.315 31.938L186.157 29.5286L193.653 27.3869ZM193.653 27.3869V22.8359L195.125 22.3005L196.464 20.8281L196.731 18.6864L196.062 17.0801L194.322 16.0093H192.448L190.976 16.8124L190.306 18.0171L190.039 19.2218" stroke="white" stroke-width="2.57001" stroke-linecap="round" stroke-linejoin="round"/>
<path d="M186.289 29.5286L186.824 31.2687L187.494 33.0088L188.698 34.3474L190.305 35.552L192.446 36.3552H194.722L196.864 35.552L198.47 34.3474L199.541 33.0088L200.21 31.2687L200.745 29.5286" stroke="white" stroke-width="2.57001" stroke-linecap="round" stroke-linejoin="round"/>
<path d="M156.824 92.7811L89.1484 161.912" stroke="url(#paint2_linear_485_1682)" stroke-width="4.36617"/>
<path d="M52.7656 254.693V359.845" stroke="url(#paint3_linear_485_1682)" stroke-width="4.36617"/>
<path d="M90.2422 451.171L156.462 514.48" stroke="url(#paint4_linear_485_1682)" stroke-width="4.36617"/>
<circle cx="53.4856" cy="412.967" r="52.576" fill="#16224A" stroke="url(#paint5_linear_485_1682)" stroke-width="1.81924"/>
<path d="M44.1203 381.312H39.8049L37.3595 382.463L35.921 384.477L34.9141 387.21V440.721L36.4964 443.741L38.7979 445.324L41.6749 446.043H66.2726L68.8619 445.324L70.8757 443.454L72.0265 440.721L71.7388 387.21L70.8757 384.477L69.4373 382.894L66.4165 381.312H62.6765M44.1203 381.312L47.141 385.627H59.2242L62.6765 381.312M44.1203 381.312H62.6765M51.4564 441.008H55.1965" stroke="white" stroke-width="2.35187" stroke-linecap="round" stroke-linejoin="round"/>
<path d="M42.5312 413.39H45.6959M42.5312 424.034H48.7167V418.28H42.5312V424.034Z" stroke="white" stroke-width="2.35187" stroke-linecap="round" stroke-linejoin="round"/>
<path d="M53.3198 402.601V406.197M42.5312 408.787H48.7167V402.889H42.5312V408.787Z" stroke="white" stroke-width="2.35187" stroke-linecap="round" stroke-linejoin="round"/>
<path d="M53.32 410.369V413.389H50.1562" stroke="white" stroke-width="2.35187" stroke-linecap="round" stroke-linejoin="round"/>
<path d="M42.3984 413.534H45.7069" stroke="white" stroke-width="2.35187" stroke-linecap="round" stroke-linejoin="round"/>
<path d="M53.3125 417.705V420.006" stroke="white" stroke-width="2.35187" stroke-linecap="round" stroke-linejoin="round"/>
<path d="M53.0391 424.178H56.6352" stroke="white" stroke-width="2.35187" stroke-linecap="round" stroke-linejoin="round"/>
<path d="M60.8047 424.322H64.1132V419.719" stroke="white" stroke-width="2.35187" stroke-linecap="round" stroke-linejoin="round"/>
<path d="M57.9297 419.718V416.698" stroke="white" stroke-width="2.35187" stroke-linecap="round" stroke-linejoin="round"/>
<path d="M59.5156 416.553V413.39" stroke="white" stroke-width="2.35187" stroke-linecap="round" stroke-linejoin="round"/>
<path d="M64.1172 413.102V415.115" stroke="white" stroke-width="2.35187" stroke-linecap="round" stroke-linejoin="round"/>
<path d="M58.0703 408.93V402.889H64.1119V408.93H58.0703Z" stroke="white" stroke-width="2.35187" stroke-linecap="round" stroke-linejoin="round"/>
<path opacity="0.8" d="M216.897 112.065L373.949 490.111M216.897 112.065V490.111M216.897 112.065L483.324 379.053M216.897 112.065L106.961 379.053M216.897 112.065L483.324 222.562M373.949 490.111V112.065M373.949 490.111L106.961 222.562M373.949 490.111L483.324 222.562M373.949 490.111L106.961 379.053M373.949 112.065L106.961 379.053M373.949 112.065L483.324 379.053M373.949 112.065L106.961 222.562M373.949 112.065L216.897 490.111M106.961 379.053H483.324M106.961 379.053L483.324 222.562M483.324 379.053L106.961 222.562M483.324 379.053L216.897 490.111M106.961 222.562H483.324M106.961 222.562L216.897 491.153M216.897 490.111L483.324 222.562" stroke="url(#paint6_linear_485_1682)" stroke-width="1.64821"/>
<circle cx="197.579" cy="548.318" r="52.576" fill="#16224A" stroke="url(#paint7_linear_485_1682)" stroke-width="1.81924"/>
<path d="M173.75 535.925V558.811L175.816 561.513L177.882 562.625L181.061 563.42H186.147L188.69 562.149L190.915 560.082L192.822 558.175H204.106L206.808 560.082L209.192 561.513L212.212 563.42H219.84L222.86 560.877L224.29 558.175V553.884V537.196L222.86 534.494L220.476 532.587H177.405L175.816 533.382L174.068 535.607" stroke="white" stroke-width="3.14621" stroke-linecap="round" stroke-linejoin="round"/>
<path d="M193.445 542.441H204.094" stroke="white" stroke-width="3.14621" stroke-linecap="round" stroke-linejoin="round"/>
<path d="M224.453 537.196L227.95 538.15L231.287 539.103L232.718 541.011V553.407L231.287 556.268L227.95 556.904L224.453 557.54" stroke="white" stroke-width="3.14621" stroke-linecap="round" stroke-linejoin="round"/>
<path d="M173.593 537.514L170.573 538.15L167.553 538.786L165.805 539.421L164.852 541.487V554.202L166.282 556.268L167.553 556.745L170.255 557.54L173.593 558.175" stroke="white" stroke-width="3.14621" stroke-linecap="round" stroke-linejoin="round"/>
<circle cx="53.4856" cy="200.48" r="52.576" fill="#16224A" stroke="url(#paint8_linear_485_1682)" stroke-width="1.81924"/>
<path d="M26.9141 215.023V184.353L53.6063 168.825L80.1702 184.353V215.023L53.6063 230.679L26.9141 215.023Z" stroke="white" stroke-width="2.379" stroke-linecap="round" stroke-linejoin="round"/>
<path d="M35.1328 206.169V194.106H37.571L42.3192 206.169H44.6291V194.106" stroke="white" stroke-width="2.379" stroke-linecap="round" stroke-linejoin="round"/>
<path d="M51.5547 206.169V200.779M59.896 193.721H51.5547V200.779M51.5547 200.779H57.7144" stroke="white" stroke-width="2.379" stroke-linecap="round" stroke-linejoin="round"/>
<path d="M69.1444 206.04V193.593H64.7812H73.3792" stroke="white" stroke-width="2.379" stroke-linecap="round" stroke-linejoin="round"/>
<path d="M251.166 285.789H242.849C242.849 286.276 242.849 286.696 242.849 287.116C242.849 292.35 242.887 297.586 242.831 302.82C242.794 305.037 241.89 307.152 240.311 308.709C238.732 310.266 236.605 311.141 234.387 311.146C232.187 311.165 230.069 310.315 228.493 308.78C226.917 307.245 226.011 305.15 225.972 302.951C225.897 297.642 225.948 292.339 225.943 287.034C225.943 286.623 225.943 286.212 225.943 285.767H217.487C217.465 286.132 217.44 286.378 217.44 286.623C217.44 292 217.394 297.378 217.449 302.755C217.46 305.174 217.99 307.564 219.001 309.762C220.013 311.96 221.484 313.916 223.315 315.498C225.146 317.08 227.295 318.251 229.617 318.933C231.938 319.615 234.379 319.792 236.775 319.451C244.425 318.432 250.82 311.815 251.173 304.111C251.447 298.14 251.272 292.149 251.289 286.168C251.269 286.036 251.227 285.908 251.166 285.789" fill="white"/>
<path d="M355.892 304.192C355.527 300.938 355.817 297.61 355.817 294.211H364.046V285.694H355.654V268.876H347.172V269.696C347.172 280.629 347.083 291.565 347.205 302.496C347.285 309.648 350.675 314.906 357.114 318.08C359.278 319.123 361.653 319.65 364.055 319.621V311.255C363.824 311.211 363.594 311.154 363.361 311.127C359.48 310.685 356.325 308.045 355.892 304.192" fill="white"/>
<path d="M327.012 286.075C326.996 296.86 326.996 307.645 327.012 318.43C327.012 318.807 327.045 319.186 327.065 319.606H335.463V294.164H343.819V285.679H335.488C335.456 283.965 335.979 282.288 336.98 280.896C337.755 279.77 338.79 278.848 339.998 278.207C341.206 277.566 342.55 277.227 343.917 277.216V268.645C342.515 268.787 341.121 269.009 339.744 269.309C336.033 270.242 332.75 272.411 330.436 275.458C328.122 278.506 326.915 282.25 327.012 286.075" fill="white"/>
<path d="M301.219 301.53C301.219 291.066 301.219 280.602 301.219 270.138V268.84H292.774V270.005C292.774 280.753 292.776 291.502 292.779 302.251C292.682 305.893 293.765 309.47 295.865 312.447C297.966 315.424 300.972 317.643 304.436 318.773C306.096 319.388 307.861 319.671 309.63 319.605V311.228C303.904 310.389 301.219 307.27 301.219 301.531" fill="white"/>
<path d="M322.343 285.813H314.055V319.614H322.343V285.813Z" fill="white"/>
<path d="M372.977 313.159H367.164V319.676H372.977V313.159Z" fill="white"/>
<path d="M288.407 296.596C286.977 292.886 284.308 289.784 280.853 287.817C278.264 286.367 275.341 285.62 272.374 285.651C269.407 285.682 266.5 286.489 263.942 287.992C261.385 289.496 259.265 291.643 257.795 294.22C256.325 296.797 255.555 299.714 255.563 302.681C255.643 310.301 255.625 318.049 255.607 325.542C255.599 328.759 255.591 332.089 255.591 335.357V336.596H264.157V317.647C264.577 317.804 264.979 317.964 265.369 318.119C266.24 318.488 267.134 318.803 268.044 319.061C269.354 319.415 270.699 319.626 272.054 319.689C274.85 319.761 277.622 319.144 280.123 317.891C282.624 316.639 284.778 314.789 286.394 312.507C288.011 310.224 289.04 307.578 289.391 304.803C289.742 302.028 289.404 299.209 288.407 296.596M283.99 303.349C272.787 303.546 272.68 303.675 272.516 317.192H272.376C272.213 303.675 272.106 303.546 260.902 303.349V303.209C272.106 303.013 272.213 302.884 272.376 289.367H272.516C272.679 302.884 272.786 303.013 283.99 303.209V303.349Z" fill="white"/>
<circle cx="393.322" cy="548.318" r="52.576" fill="#16224A" stroke="url(#paint9_linear_485_1682)" stroke-width="1.81924"/>
<path d="M371.391 553.654H416.486" stroke="white" stroke-width="2.18308" stroke-linecap="round" stroke-linejoin="round"/>
<path d="M417.274 546.171H370.898V543.808L371.194 541.445L372.178 538.491L373.754 535.734L376.117 532.485L379.169 529.63L383.009 527.365L386.554 526.085L390.591 525.396H399.059L402.8 526.38L406.542 527.857L409.2 529.63L411.76 532.091L413.828 535.045L415.994 538.787L417.274 542.528V546.171Z" stroke="white" stroke-width="2.18308" stroke-linecap="round" stroke-linejoin="round"/>
<path d="M384.969 535.34V538.097" stroke="white" stroke-width="2.18308" stroke-linecap="round" stroke-linejoin="round"/>
<path d="M394.039 535.242V537.998" stroke="white" stroke-width="2.18308" stroke-linecap="round" stroke-linejoin="round"/>
<path d="M402.992 535.143V537.9" stroke="white" stroke-width="2.18308" stroke-linecap="round" stroke-linejoin="round"/>
<path d="M370.8 561.138H395.908L402.997 566.258L410.283 561.138H417.274L417.471 565.962L416.486 568.325L415.108 569.802L412.253 571.673H375.723L372.966 570.196L371.194 567.833L370.406 565.962V561.138" stroke="white" stroke-width="2.18308" stroke-linecap="round" stroke-linejoin="round"/>
<path d="M388.76 42.2378V60.5811M388.76 42.2378L387.431 41.0415L386.367 39.9781L385.038 39.4464H383.842L382.645 39.9781L381.449 40.7756L379.987 42.2378M388.76 42.2378L390.488 40.7756L391.418 39.9781L392.88 39.4464L394.21 39.7122L395.273 39.9781L396.336 40.7756L397.533 42.2378M388.76 60.5811L387.696 61.9103L386.766 62.7078L385.703 63.1066L384.373 63.3725H383.177L382.114 62.7078L381.449 61.9103L380.519 60.8469L376.531 64.5688L383.576 58.0555L384.373 57.1251L385.038 55.2642V53.6691L384.772 52.2069L383.842 50.6119L382.645 49.4156L381.449 49.1497L379.721 49.4156L378.259 50.6119L377.063 52.7386L376.265 53.6691L374.936 55.2642L372.277 57.5239L371.214 58.3214M388.76 60.5811L389.291 61.1128L390.089 61.9103L391.418 62.7078L392.615 63.3725L394.21 63.1066L395.539 62.7078L396.336 62.3091L397.533 61.1128V59.5177V42.2378M371.214 58.3214L370.151 59.1189V58.986L368.954 60.0494L368.29 61.2457L367.891 62.0432L367.492 63.9041V66.0309V67.7589L367.891 69.6198L368.29 71.082L368.954 72.81L369.885 74.1392L371.48 76.133L372.543 77.4622V82.6462L373.075 83.7096L373.474 84.6401L374.404 85.5705L375.6 86.3681H400.191L401.387 85.5705L402.185 84.6401L402.85 83.045V77.4622L403.647 76.3989L404.578 75.3355L405.375 73.8733L406.173 72.0124L406.704 70.1515V59.1189L410.426 28.6796V26.9517L409.629 25.7553L408.964 25.2237L408.034 24.559L406.306 24.2932L404.976 24.559L403.78 25.2237L402.451 26.9517L397.533 42.2378M371.214 58.3214L368.821 25.7553L369.087 23.8944L369.752 22.6981L370.549 21.9006L371.746 21.3689L372.676 21.1031H373.872L375.202 21.3689L376.398 22.6981L376.797 23.8944L379.987 40.5098V42.2378M379.987 48.4851V42.2378" stroke="white" stroke-width="2.54693" stroke-linecap="round" stroke-linejoin="round"/>
<path d="M246.695 53.8494H334.019" stroke="url(#paint10_linear_485_1682)" stroke-width="4.36617" stroke-linecap="round" stroke-linejoin="round"/>
<path d="M252.516 553.776L339.839 553.759" stroke="url(#paint11_linear_485_1682)" stroke-width="4.36617" stroke-linecap="round" stroke-linejoin="round"/>
<defs>
<linearGradient id="paint0_linear_485_1682" x1="193.22" y1="0" x2="193.22" y2="106.971" gradientUnits="userSpaceOnUse">
<stop stop-color="#7500FF"/>
<stop offset="1" stop-color="#0099FF" stop-opacity="0.93"/>
</linearGradient>
<linearGradient id="paint1_linear_485_1682" x1="388.962" y1="0" x2="388.962" y2="106.971" gradientUnits="userSpaceOnUse">
<stop stop-color="#7500FF"/>
<stop offset="1" stop-color="#0099FF" stop-opacity="0.93"/>
</linearGradient>
<linearGradient id="paint2_linear_485_1682" x1="122.986" y1="92.7811" x2="122.986" y2="161.912" gradientUnits="userSpaceOnUse">
<stop stop-color="#7500FF"/>
<stop offset="1" stop-color="#0099FF" stop-opacity="0.93"/>
</linearGradient>
<linearGradient id="paint3_linear_485_1682" x1="53.2656" y1="254.693" x2="53.2656" y2="359.845" gradientUnits="userSpaceOnUse">
<stop stop-color="#7500FF"/>
<stop offset="1" stop-color="#0099FF" stop-opacity="0.93"/>
</linearGradient>
<linearGradient id="paint4_linear_485_1682" x1="123.352" y1="451.171" x2="123.352" y2="514.48" gradientUnits="userSpaceOnUse">
<stop stop-color="#7500FF"/>
<stop offset="1" stop-color="#0099FF" stop-opacity="0.93"/>
</linearGradient>
<linearGradient id="paint5_linear_485_1682" x1="53.4856" y1="359.481" x2="53.4856" y2="466.452" gradientUnits="userSpaceOnUse">
<stop stop-color="#7500FF"/>
<stop offset="1" stop-color="#0099FF" stop-opacity="0.93"/>
</linearGradient>
<linearGradient id="paint6_linear_485_1682" x1="275.158" y1="112.065" x2="275.158" y2="493.476" gradientUnits="userSpaceOnUse">
<stop stop-color="#5F3195"/>
<stop offset="1" stop-color="#47A2DF" stop-opacity="0.46"/>
</linearGradient>
<linearGradient id="paint7_linear_485_1682" x1="197.579" y1="494.833" x2="197.579" y2="601.804" gradientUnits="userSpaceOnUse">
<stop stop-color="#7500FF"/>
<stop offset="1" stop-color="#0099FF" stop-opacity="0.93"/>
</linearGradient>
<linearGradient id="paint8_linear_485_1682" x1="53.4856" y1="146.994" x2="53.4856" y2="253.966" gradientUnits="userSpaceOnUse">
<stop stop-color="#7500FF"/>
<stop offset="1" stop-color="#0099FF" stop-opacity="0.93"/>
</linearGradient>
<linearGradient id="paint9_linear_485_1682" x1="393.322" y1="494.833" x2="393.322" y2="601.804" gradientUnits="userSpaceOnUse">
<stop stop-color="#7500FF"/>
<stop offset="1" stop-color="#0099FF" stop-opacity="0.93"/>
</linearGradient>
<linearGradient id="paint10_linear_485_1682" x1="290.357" y1="53.8494" x2="290.357" y2="54.8494" gradientUnits="userSpaceOnUse">
<stop stop-color="#7500FF"/>
<stop offset="1" stop-color="#0099FF" stop-opacity="0.93"/>
</linearGradient>
<linearGradient id="paint11_linear_485_1682" x1="296.177" y1="553.767" x2="296.178" y2="554.767" gradientUnits="userSpaceOnUse">
<stop stop-color="#7500FF"/>
<stop offset="1" stop-color="#0099FF" stop-opacity="0.93"/>
</linearGradient>
</defs>
</svg>
