<svg width="65" height="65" viewBox="0 0 65 65" fill="none" xmlns="http://www.w3.org/2000/svg">
    <g clip-path="url(#clip0_635_2222)" filter="url(#filter0_dd_635_2222747474)">
    <circle cx="32.7706" cy="24.2557" r="11.7847" fill="white"/>
    <path d="M27.8604 18.8543C27.8604 18.2032 28.119 17.5787 28.5794 17.1183C29.0399 16.6578 29.6644 16.3992 30.3155 16.3992H32.7707V21.3095H30.3155C29.6644 21.3095 29.0399 21.0508 28.5794 20.5904C28.119 20.1299 27.8604 19.5055 27.8604 18.8543Z" stroke="black" strokeWidth="0.982061" strokeLinecap="round" strokeLinejoin="round"/>
    <path d="M32.7705 16.3992H35.2257C35.5481 16.3992 35.8673 16.4627 36.1652 16.5861C36.4631 16.7094 36.7337 16.8903 36.9617 17.1183C37.1897 17.3462 37.3705 17.6169 37.4939 17.9148C37.6173 18.2126 37.6808 18.5319 37.6808 18.8543C37.6808 19.1767 37.6173 19.496 37.4939 19.7939C37.3705 20.0917 37.1897 20.3624 36.9617 20.5904C36.7337 20.8184 36.4631 20.9992 36.1652 21.1226C35.8673 21.246 35.5481 21.3095 35.2257 21.3095H32.7705V16.3992Z" stroke="black" strokeWidth="0.982061" strokeLinecap="round" strokeLinejoin="round"/>
    <path d="M32.7705 23.7647C32.7705 23.4423 32.834 23.123 32.9574 22.8252C33.0808 22.5273 33.2616 22.2566 33.4896 22.0287C33.7176 21.8007 33.9882 21.6198 34.2861 21.4965C34.584 21.3731 34.9032 21.3096 35.2257 21.3096C35.5481 21.3096 35.8673 21.3731 36.1652 21.4965C36.4631 21.6198 36.7337 21.8007 36.9617 22.0287C37.1897 22.2566 37.3705 22.5273 37.4939 22.8252C37.6173 23.123 37.6808 23.4423 37.6808 23.7647C37.6808 24.0871 37.6173 24.4064 37.4939 24.7043C37.3705 25.0021 37.1897 25.2728 36.9617 25.5008C36.7337 25.7288 36.4631 25.9096 36.1652 26.033C35.8673 26.1564 35.5481 26.2199 35.2257 26.2199C34.9032 26.2199 34.584 26.1564 34.2861 26.033C33.9882 25.9096 33.7176 25.7288 33.4896 25.5008C33.2616 25.2728 33.0808 25.0021 32.9574 24.7043C32.834 24.4064 32.7705 24.0871 32.7705 23.7647V23.7647Z" stroke="black" strokeWidth="0.982061" strokeLinecap="round" strokeLinejoin="round"/>
    <path d="M27.8604 28.6749C27.8604 28.0237 28.119 27.3993 28.5794 26.9388C29.0399 26.4784 29.6644 26.2197 30.3155 26.2197H32.7707V28.6749C32.7707 29.326 32.512 29.9505 32.0516 30.4109C31.5911 30.8714 30.9667 31.13 30.3155 31.13C29.6644 31.13 29.0399 30.8714 28.5794 30.4109C28.119 29.9505 27.8604 29.326 27.8604 28.6749Z" stroke="black" strokeWidth="0.982061" strokeLinecap="round" strokeLinejoin="round"/>
    <path d="M27.8604 23.7647C27.8604 23.1136 28.119 22.4891 28.5794 22.0287C29.0399 21.5682 29.6644 21.3096 30.3155 21.3096H32.7707V26.2199H30.3155C29.6644 26.2199 29.0399 25.9612 28.5794 25.5008C28.119 25.0403 27.8604 24.4159 27.8604 23.7647Z" stroke="black" strokeWidth="0.982061" strokeLinecap="round" strokeLinejoin="round"/>
    </g>
    <defs>
    <filter id="filter0_dd_635_2222747474" x="0.98584" y="0.470947" width="63.5693" height="63.5696" filterUnits="userSpaceOnUse" colorInterpolationFilters="sRGB">
    <feFlood floodOpacity="0" result="BackgroundImageFix"/>
    <feColorMatrix in="SourceAlpha" type="matrix" values="0 0 0 0 0 0 0 0 0 0 0 0 0 0 0 0 0 0 127 0" result="hardAlpha"/>
    <feMorphology radius="4" operator="erode" in="SourceAlpha" result="effect1_dropShadow_635_2222"/>
    <feOffset dy="8"/>
    <feGaussianBlur stdDeviation="12"/>
    <feColorMatrix type="matrix" values="0 0 0 0 0.0941176 0 0 0 0 0.152941 0 0 0 0 0.294118 0 0 0 0.08 0"/>
    <feBlend mode="normal" in2="BackgroundImageFix" result="effect1_dropShadow_635_2222"/>
    <feColorMatrix in="SourceAlpha" type="matrix" values="0 0 0 0 0 0 0 0 0 0 0 0 0 0 0 0 0 0 127 0" result="hardAlpha"/>
    <feMorphology radius="6" operator="erode" in="SourceAlpha" result="effect2_dropShadow_635_2222"/>
    <feOffset dy="6"/>
    <feGaussianBlur stdDeviation="6"/>
    <feColorMatrix type="matrix" values="0 0 0 0 0.0941176 0 0 0 0 0.152941 0 0 0 0 0.294118 0 0 0 0.12 0"/>
    <feBlend mode="normal" in2="effect1_dropShadow_635_2222" result="effect2_dropShadow_635_2222"/>
    <feBlend mode="normal" in="SourceGraphic" in2="effect2_dropShadow_635_2222" result="shape"/>
    </filter>
    <clipPath id="clip0_635_2222">
    <rect width="23.5695" height="23.5695" fill="white" transform="translate(20.9858 12.4709)"/>
    </clipPath>
    </defs>
    </svg>
    