<svg width="64" height="65" viewBox="0 0 64 65" fill="none" xmlns="http://www.w3.org/2000/svg">
    <g clip-path="url(#clip0_635_2219)" filter="url(#filter0_dd_635_2219)">
    <circle cx="31.9234" cy="24.2557" r="11.7847" fill="white"/>
    <path d="M34.6429 32.1121V29.2202C34.6713 28.8638 34.6226 28.5056 34.5002 28.1693C34.3777 27.833 34.1843 27.5264 33.9328 27.2698C36.3049 27.0082 38.7978 26.1189 38.7978 22.0388C38.7976 20.9954 38.3919 19.9921 37.6647 19.2365C38.009 18.3236 37.9847 17.3147 37.5967 16.4192C37.5967 16.4192 36.7053 16.1576 34.6429 17.5252C32.9115 17.061 31.0864 17.061 29.3549 17.5252C27.2926 16.1576 26.4012 16.4192 26.4012 16.4192C26.0132 17.3147 25.9888 18.3236 26.3332 19.2365C25.6005 19.9977 25.1944 21.0101 25.2 22.0612C25.2 26.1115 27.693 27.0007 30.065 27.2922C29.8165 27.5462 29.6248 27.8492 29.5025 28.1814C29.3801 28.5136 29.3298 28.8675 29.3549 29.2202V32.1121M29.3549 29.8703C25.5778 30.9912 25.5778 28.0021 24.0669 27.6284L29.3549 29.8703Z" stroke="black" strokeWidth="0.982061" strokeLinecap="round" strokeLinejoin="round"/>
    </g>
    <defs>
    <filter id="filter0_dd_635_2219" x="0.138672" y="0.470947" width="63.5693" height="63.5696" filterUnits="userSpaceOnUse" colorInterpolationFilters="sRGB">
    <feFlood floodOpacity="0" result="BackgroundImageFix"/>
    <feColorMatrix in="SourceAlpha" type="matrix" values="0 0 0 0 0 0 0 0 0 0 0 0 0 0 0 0 0 0 127 0" result="hardAlpha"/>
    <feMorphology radius="4" operator="erode" in="SourceAlpha" result="effect1_dropShadow_635_2219"/>
    <feOffset dy="8"/>
    <feGaussianBlur stdDeviation="12"/>
    <feColorMatrix type="matrix" values="0 0 0 0 0.0941176 0 0 0 0 0.152941 0 0 0 0 0.294118 0 0 0 0.08 0"/>
    <feBlend mode="normal" in2="BackgroundImageFix" result="effect1_dropShadow_635_2219"/>
    <feColorMatrix in="SourceAlpha" type="matrix" values="0 0 0 0 0 0 0 0 0 0 0 0 0 0 0 0 0 0 127 0" result="hardAlpha"/>
    <feMorphology radius="6" operator="erode" in="SourceAlpha" result="effect2_dropShadow_635_2219"/>
    <feOffset dy="6"/>
    <feGaussianBlur stdDeviation="6"/>
    <feColorMatrix type="matrix" values="0 0 0 0 0.0941176 0 0 0 0 0.152941 0 0 0 0 0.294118 0 0 0 0.12 0"/>
    <feBlend mode="normal" in2="effect1_dropShadow_635_2219" result="effect2_dropShadow_635_2219"/>
    <feBlend mode="normal" in="SourceGraphic" in2="effect2_dropShadow_635_2219" result="shape"/>
    </filter>
    <clipPath id="clip0_635_2219">
    <rect width="23.5695" height="23.5695" fill="white" transform="translate(20.1387 12.4709)"/>
    </clipPath>
    </defs>
    </svg>
    