<svg width="65" height="65" viewBox="0 0 65 65" fill="none" xmlns="http://www.w3.org/2000/svg">
    <g clip-path="url(#clip0_635_221898756)" filter="url(#filter0_dd_635_2218)">
    <circle cx="32.6407" cy="24.2557" r="11.7847" fill="white"/>
    <path d="M40.2236 25.8731L32.626 31.1302L25.0284 25.8731C24.9265 25.8018 24.851 25.7017 24.8125 25.587C24.7741 25.4723 24.7747 25.349 24.8144 25.2347L25.6847 22.6673L27.4254 17.5664C27.4423 17.5249 27.4691 17.4877 27.5039 17.4578C27.5604 17.4086 27.6342 17.3813 27.7107 17.3813C27.7873 17.3813 27.8611 17.4086 27.9176 17.4578C27.9543 17.4915 27.9813 17.5336 27.9961 17.58L29.7368 22.6673H35.5152L37.2559 17.5664C37.2728 17.5249 37.2996 17.4877 37.3343 17.4578C37.3909 17.4086 37.4647 17.3813 37.5412 17.3813C37.6178 17.3813 37.6916 17.4086 37.7481 17.4578C37.7848 17.4915 37.8118 17.5336 37.8266 17.58L39.5673 22.6809L40.4733 25.2347C40.5093 25.3525 40.5045 25.4783 40.4595 25.5933C40.4145 25.7083 40.3318 25.8064 40.2236 25.8731V25.8731Z" stroke="black" strokeWidth="0.982061" strokeLinecap="round" strokeLinejoin="round"/>
    </g>
    <defs>
    <filter id="filter0_dd_635_2218" x="0.855957" y="0.470947" width="63.5693" height="63.5696" filterUnits="userSpaceOnUse" colorInterpolationFilters="sRGB">
    <feFlood floodOpacity="0" result="BackgroundImageFix"/>
    <feColorMatrix in="SourceAlpha" type="matrix" values="0 0 0 0 0 0 0 0 0 0 0 0 0 0 0 0 0 0 127 0" result="hardAlpha"/>
    <feMorphology radius="4" operator="erode" in="SourceAlpha" result="effect1_dropShadow_635_2218"/>
    <feOffset dy="8"/>
    <feGaussianBlur stdDeviation="12"/>
    <feColorMatrix type="matrix" values="0 0 0 0 0.0941176 0 0 0 0 0.152941 0 0 0 0 0.294118 0 0 0 0.08 0"/>
    <feBlend mode="normal" in2="BackgroundImageFix" result="effect1_dropShadow_635_2218"/>
    <feColorMatrix in="SourceAlpha" type="matrix" values="0 0 0 0 0 0 0 0 0 0 0 0 0 0 0 0 0 0 127 0" result="hardAlpha"/>
    <feMorphology radius="6" operator="erode" in="SourceAlpha" result="effect2_dropShadow_635_2218"/>
    <feOffset dy="6"/>
    <feGaussianBlur stdDeviation="6"/>
    <feColorMatrix type="matrix" values="0 0 0 0 0.0941176 0 0 0 0 0.152941 0 0 0 0 0.294118 0 0 0 0.12 0"/>
    <feBlend mode="normal" in2="effect1_dropShadow_635_2218" result="effect2_dropShadow_635_2218"/>
    <feBlend mode="normal" in="SourceGraphic" in2="effect2_dropShadow_635_2218" result="shape"/>
    </filter>
    <clipPath id="clip0_635_221898756">
    <rect width="23.5695" height="23.5695" fill="white" transform="translate(20.856 12.4709)"/>
    </clipPath>
    </defs>
    </svg>
    