<svg width="65" height="65" viewBox="0 0 65 65" fill="none" xmlns="http://www.w3.org/2000/svg">
    <g filter="url(#filter0_dd_635_222183838383)">
    <circle cx="32.4883" cy="24.2557" r="11.7847" fill="white"/>
    <path fill-rule="evenodd" clip-rule="evenodd" d="M28.8228 17.3812C27.0506 17.3812 25.6139 18.8179 25.6139 20.5901V27.9899C25.6139 29.7621 27.0506 31.1987 28.8228 31.1987H36.2225C37.9948 31.1987 39.4314 29.7621 39.4314 27.9899V20.5901C39.4314 18.8179 37.9948 17.3812 36.2225 17.3812H28.8228ZM24.6318 20.5901C24.6318 18.2755 26.5082 16.3992 28.8228 16.3992H36.2225C38.5371 16.3992 40.4135 18.2755 40.4135 20.5901V27.9899C40.4135 30.3045 38.5371 32.1808 36.2225 32.1808H28.8228C26.5082 32.1808 24.6318 30.3045 24.6318 27.9899V20.5901ZM32.917 21.8157C32.4033 21.7395 31.8787 21.8273 31.4177 22.0664C30.9568 22.3056 30.583 22.684 30.3495 23.1479C30.116 23.6118 30.0348 24.1374 30.1173 24.6501C30.1998 25.1628 30.4418 25.6365 30.809 26.0037C31.1762 26.3708 31.6499 26.6129 32.1626 26.6954C32.6753 26.7779 33.2009 26.6966 33.6648 26.4632C34.1286 26.2297 34.5071 25.8559 34.7462 25.395C34.9854 24.934 35.0732 24.4094 34.997 23.8957C34.9193 23.3718 34.6751 22.8867 34.3006 22.5121C33.926 22.1376 33.4409 21.8934 32.917 21.8157ZM30.9654 21.1947C31.6097 20.8604 32.343 20.7378 33.061 20.8443C33.7934 20.9529 34.4714 21.2942 34.995 21.8177C35.5185 22.3412 35.8598 23.0193 35.9684 23.7517C36.0749 24.4697 35.9523 25.203 35.6179 25.8473C35.2836 26.4916 34.7547 27.0141 34.1063 27.3404C33.458 27.6667 32.7232 27.7803 32.0066 27.665C31.2899 27.5497 30.6279 27.2113 30.1146 26.6981C29.6014 26.1848 29.263 25.5228 29.1477 24.8061C29.0324 24.0895 29.146 23.3547 29.4723 22.7064C29.7986 22.058 30.3211 21.5291 30.9654 21.1947ZM36.5926 19.729C36.3214 19.729 36.1015 19.9488 36.1015 20.22C36.1015 20.4912 36.3214 20.711 36.5926 20.711H36.6012C36.8724 20.711 37.0922 20.4912 37.0922 20.22C37.0922 19.9488 36.8724 19.729 36.6012 19.729H36.5926Z" fill="black"/>
    </g>
    <defs>
    <filter id="filter0_dd_635_222183838383" x="0.703613" y="0.470947" width="63.5693" height="63.5696" filterUnits="userSpaceOnUse" color-interpolation-filters="sRGB">
    <feFlood flood-opacity="0" result="BackgroundImageFix"/>
    <feColorMatrix in="SourceAlpha" type="matrix" values="0 0 0 0 0 0 0 0 0 0 0 0 0 0 0 0 0 0 127 0" result="hardAlpha"/>
    <feMorphology radius="4" operator="erode" in="SourceAlpha" result="effect1_dropShadow_635_2221"/>
    <feOffset dy="8"/>
    <feGaussianBlur stdDeviation="12"/>
    <feColorMatrix type="matrix" values="0 0 0 0 0.0941176 0 0 0 0 0.152941 0 0 0 0 0.294118 0 0 0 0.08 0"/>
    <feBlend mode="normal" in2="BackgroundImageFix" result="effect1_dropShadow_635_2221"/>
    <feColorMatrix in="SourceAlpha" type="matrix" values="0 0 0 0 0 0 0 0 0 0 0 0 0 0 0 0 0 0 127 0" result="hardAlpha"/>
    <feMorphology radius="6" operator="erode" in="SourceAlpha" result="effect2_dropShadow_635_2221"/>
    <feOffset dy="6"/>
    <feGaussianBlur stdDeviation="6"/>
    <feColorMatrix type="matrix" values="0 0 0 0 0.0941176 0 0 0 0 0.152941 0 0 0 0 0.294118 0 0 0 0.12 0"/>
    <feBlend mode="normal" in2="effect1_dropShadow_635_2221" result="effect2_dropShadow_635_2221"/>
    <feBlend mode="normal" in="SourceGraphic" in2="effect2_dropShadow_635_2221" result="shape"/>
    </filter>
    </defs>
    </svg>
    