<svg width="25" height="17" viewBox="0 0 25 17" fill="none" xmlns="http://www.w3.org/2000/svg">
    <path d="M0 15.2778C0 16.0448 0.621827 16.6667 1.38889 16.6667H23.6111C24.3782 16.6667 25 16.0448 25 15.2778C25 14.5107 24.3782 13.8889 23.6111 13.8889H1.38889C0.621827 13.8889 0 14.5107 0 15.2778ZM0 8.33333C0 9.1004 0.621827 9.72222 1.38889 9.72222H23.6111C24.3782 9.72222 25 9.1004 25 8.33333C25 7.56627 24.3782 6.94444 23.6111 6.94444H1.38889C0.621827 6.94444 0 7.56627 0 8.33333ZM1.38889 0C0.621827 0 0 0.621827 0 1.38889C0 2.15595 0.621827 2.77778 1.38889 2.77778H23.6111C24.3782 2.77778 25 2.15595 25 1.38889C25 0.621827 24.3782 0 23.6111 0H1.38889Z" fill="white"/>
    </svg>
    