<svg width="83" height="203" viewBox="0 0 83 203" fill="none" xmlns="http://www.w3.org/2000/svg">
<path d="M200.548 101.501C200.548 155.957 156.221 200.116 101.524 200.116C46.826 200.116 2.49909 155.957 2.49909 101.501C2.49909 47.0447 46.826 2.88532 101.524 2.88532C156.221 2.88532 200.548 47.0447 200.548 101.501Z" stroke="white" stroke-opacity="0.46" stroke-width="4.09192"/>
<path d="M200.548 101.501C200.548 155.957 156.221 200.116 101.524 200.116C46.826 200.116 2.49909 155.957 2.49909 101.501C2.49909 47.0447 46.826 2.88532 101.524 2.88532C156.221 2.88532 200.548 47.0447 200.548 101.501Z" stroke="white" stroke-opacity="0.46" stroke-width="4.09192"/>
<path d="M23 97.993C21.3393 97.993 19.993 99.3393 19.993 101C19.993 102.661 21.3393 104.007 23 104.007V97.993ZM74.2293 103.126C75.4036 101.952 75.4036 100.048 74.2293 98.8737L55.0928 79.7372C53.9185 78.5629 52.0146 78.5629 50.8403 79.7372C49.6659 80.9115 49.6659 82.8154 50.8403 83.9898L67.8505 101L50.8403 118.01C49.6659 119.185 49.6659 121.088 50.8403 122.263C52.0146 123.437 53.9185 123.437 55.0928 122.263L74.2293 103.126ZM23 104.007H72.1031V97.993H23V104.007Z" fill="white" fill-opacity="0.46"/>
<path d="M23 97.993C21.3393 97.993 19.993 99.3393 19.993 101C19.993 102.661 21.3393 104.007 23 104.007V97.993ZM74.2293 103.126C75.4036 101.952 75.4036 100.048 74.2293 98.8737L55.0928 79.7372C53.9185 78.5629 52.0146 78.5629 50.8403 79.7372C49.6659 80.9115 49.6659 82.8154 50.8403 83.9898L67.8505 101L50.8403 118.01C49.6659 119.185 49.6659 121.088 50.8403 122.263C52.0146 123.437 53.9185 123.437 55.0928 122.263L74.2293 103.126ZM23 104.007H72.1031V97.993H23V104.007Z" fill="white" fill-opacity="0.46"/>
</svg>
