<svg width="90" height="203" viewBox="0 0 90 203" fill="none" xmlns="http://www.w3.org/2000/svg">
    <path d="M-110.954 101.501C-110.954 47.0449 -66.6274 2.88553 -11.9298 2.88553C42.7677 2.88553 87.0947 47.0449 87.0947 101.501C87.0947 155.957 42.7677 200.116 -11.9298 200.116C-66.6274 200.116 -110.954 155.957 -110.954 101.501Z" stroke="white" stroke-opacity="0.46" stroke-width="4.09192"/>
    <path d="M-110.954 101.501C-110.954 47.0449 -66.6274 2.88553 -11.9298 2.88553C42.7677 2.88553 87.0947 47.0449 87.0947 101.501C87.0947 155.957 42.7677 200.116 -11.9298 200.116C-66.6274 200.116 -110.954 155.957 -110.954 101.501Z" stroke="white" stroke-opacity="0.46" stroke-width="4.09192"/>
    <path d="M70.1016 105.007C71.7623 105.007 73.1086 103.661 73.1086 102C73.1086 100.339 71.7623 98.993 70.1016 98.993V105.007ZM18.8722 99.8737C17.6979 101.048 17.6979 102.952 18.8722 104.126L38.0088 123.263C39.1831 124.437 41.087 124.437 42.2613 123.263C43.4356 122.088 43.4356 120.185 42.2613 119.01L25.2511 102L42.2613 84.9898C43.4356 83.8154 43.4356 81.9115 42.2613 80.7372C41.087 79.5629 39.1831 79.5629 38.0088 80.7372L18.8722 99.8737ZM70.1016 98.993H20.9985V105.007H70.1016V98.993Z" fill="white" fill-opacity="0.46"/>
    <path d="M70.1016 105.007C71.7623 105.007 73.1086 103.661 73.1086 102C73.1086 100.339 71.7623 98.993 70.1016 98.993V105.007ZM18.8722 99.8737C17.6979 101.048 17.6979 102.952 18.8722 104.126L38.0088 123.263C39.1831 124.437 41.087 124.437 42.2613 123.263C43.4356 122.088 43.4356 120.185 42.2613 119.01L25.2511 102L42.2613 84.9898C43.4356 83.8154 43.4356 81.9115 42.2613 80.7372C41.087 79.5629 39.1831 79.5629 38.0088 80.7372L18.8722 99.8737ZM70.1016 98.993H20.9985V105.007H70.1016V98.993Z" fill="white" fill-opacity="0.46"/>
    </svg>
    