<svg width="375" height="398" viewBox="0 0 375 398" fill="none" xmlns="http://www.w3.org/2000/svg">
<g opacity="0.5" filter="url(#filter0_f_634_2118)">
<ellipse rx="130.157" ry="52.6369" transform="matrix(-0.838466 0.544955 -0.560464 -0.828179 303.141 236.522)" fill="#C72F5A"/>
</g>
<g opacity="0.5" filter="url(#filter1_f_634_2118)">
<ellipse rx="143.441" ry="56.5833" transform="matrix(-0.838466 0.544955 -0.560464 -0.828179 3.69216 166.03)" fill="#B7EAEA"/>
</g>
<path d="M346.455 254.859C346.561 244.726 346.721 244.629 354 244.482C346.721 244.335 346.56 244.133 346.455 234C346.348 244.133 346.279 244.335 339 244.482C346.279 244.629 346.349 244.726 346.455 254.859Z" fill="white"/>
<path d="M48.9334 152.593C49.0894 137.731 49.3246 137.589 60 137.373C49.3238 137.157 49.0885 136.862 48.9334 122C48.7774 136.862 48.6754 137.157 38 137.373C48.6762 137.589 48.7783 137.731 48.9334 152.593Z" fill="white"/>
<defs>
<filter id="filter0_f_634_2118" x="112.474" y="75.6657" width="381.336" height="321.713" filterUnits="userSpaceOnUse" color-interpolation-filters="sRGB">
<feFlood flood-opacity="0" result="BackgroundImageFix"/>
<feBlend mode="normal" in="SourceGraphic" in2="BackgroundImageFix" result="shape"/>
<feGaussianBlur stdDeviation="38.7952" result="effect1_foregroundBlur_634_2118"/>
</filter>
<filter id="filter1_f_634_2118" x="-204.127" y="-8.53044" width="415.639" height="349.121" filterUnits="userSpaceOnUse" color-interpolation-filters="sRGB">
<feFlood flood-opacity="0" result="BackgroundImageFix"/>
<feBlend mode="normal" in="SourceGraphic" in2="BackgroundImageFix" result="shape"/>
<feGaussianBlur stdDeviation="41.7038" result="effect1_foregroundBlur_634_2118"/>
</filter>
</defs>
</svg>
