<svg width="189" height="83" viewBox="0 0 189 83" fill="none" xmlns="http://www.w3.org/2000/svg">
<path d="M40.9467 20.8027H30.8545C30.8545 21.3943 30.8545 21.9032 30.8545 22.4132C30.8545 28.7649 30.9007 35.1187 30.8319 41.4693C30.7881 44.1598 29.69 46.7256 27.774 48.6149C25.858 50.5042 23.277 51.5661 20.5862 51.5722C17.917 51.5956 15.3465 50.5639 13.4341 48.7016C11.5218 46.8393 10.4222 44.2971 10.3748 41.6282C10.2846 35.1863 10.3458 28.7509 10.3404 22.3134C10.3404 21.8152 10.3404 21.3159 10.3404 20.777H0.0785549C0.0527875 21.2193 0.0216519 21.5178 0.0216519 21.8152C0.0216519 28.3397 -0.0341774 34.8653 0.033462 41.3898C0.0467283 44.3261 0.688845 47.2255 1.91659 49.8928C3.14434 52.5601 4.92923 54.9335 7.15112 56.8531C9.37302 58.7728 11.9804 60.1942 14.7977 61.0217C17.615 61.8493 20.5768 62.0637 23.4839 61.6505C32.7666 60.4137 40.5269 52.3839 40.9553 43.0357C41.2871 35.7908 41.0745 28.5212 41.096 21.2633C41.071 21.1029 41.0206 20.9474 40.9467 20.8027Z" fill="white"/>
<path d="M168.018 43.1345C167.575 39.1857 167.927 35.1477 167.927 31.0228H177.912V20.6879H167.729V0.280151H157.436V1.27542C157.436 14.5424 157.329 27.8115 157.476 41.0764C157.574 49.7546 161.687 56.1353 169.501 59.9864C172.126 61.2516 175.008 61.8917 177.922 61.8567V51.7044C177.643 51.6517 177.364 51.582 177.081 51.5498C172.372 51.0129 168.543 47.8092 168.018 43.1345Z" fill="white"/>
<path d="M132.992 21.1507C132.972 34.2377 132.972 47.3243 132.992 60.4106C132.992 60.869 133.031 61.3285 133.056 61.8385H143.246V30.966H153.385V20.6697H143.276C143.238 18.5904 143.873 16.5544 145.086 14.8656C146.027 13.4995 147.284 12.3803 148.749 11.603C150.215 10.8257 151.846 10.4132 153.505 10.4004V0C151.803 0.172468 150.112 0.44131 148.44 0.805231C143.937 1.93756 139.954 4.56931 137.146 8.26728C134.338 11.9653 132.873 16.509 132.992 21.1507Z" fill="white"/>
<path d="M101.677 39.9039C101.677 27.2071 101.677 14.5095 101.677 1.81114V0.237183H91.4305V1.65009C91.4305 14.6927 91.4327 27.7356 91.437 40.779C91.3192 45.1987 92.6325 49.5381 95.1813 53.1508C97.7301 56.7634 101.378 59.4559 105.581 60.8271C107.596 61.5737 109.737 61.9166 111.884 61.8363V51.6721C104.936 50.6543 101.677 46.8687 101.677 39.905" fill="white"/>
<path d="M127.33 20.8318H117.273V61.8481H127.33V20.8318Z" fill="white"/>
<path d="M188.749 54.0148H181.695V61.9232H188.749V54.0148Z" fill="white"/>
<path d="M86.1125 33.9173C84.3774 29.415 81.1388 25.6511 76.9458 23.2636C73.8047 21.5041 70.2577 20.598 66.6576 20.6354C63.0576 20.6728 59.5301 21.6524 56.4263 23.4767C53.3225 25.301 50.7506 27.9064 48.9666 31.0335C47.1826 34.1607 46.2487 37.7005 46.2579 41.3007C46.3556 50.5469 46.333 59.9488 46.3116 69.0404C46.3019 72.9442 46.2922 76.9854 46.2922 80.9514V82.4545H56.6872V59.4603C57.1961 59.6514 57.6836 59.8457 58.157 60.0336C59.2147 60.4814 60.299 60.8632 61.4037 61.1771C62.9932 61.6067 64.6247 61.862 66.2695 61.9383C69.6626 62.0265 73.0251 61.2775 76.06 59.7575C79.0948 58.2376 81.7085 55.9934 83.6701 53.2233C85.6316 50.4533 86.8805 47.2427 87.3065 43.8753C87.7325 40.5079 87.3224 37.0875 86.1125 33.9162M80.7529 42.1113C67.1585 42.3497 67.0286 42.5064 66.8299 58.9085H66.6603C66.4627 42.5064 66.3328 42.3497 52.7373 42.1113V41.9417C66.3317 41.7033 66.4617 41.5466 66.6603 25.1446H66.8299C67.0275 41.5466 67.1574 41.7033 80.7529 41.9417V42.1113Z" fill="white"/>
</svg>
