<svg width="682" height="647" viewBox="0 0 682 647" fill="none" xmlns="http://www.w3.org/2000/svg">
    <path d="M680.595 284.055L418.667 335.195M680.595 284.055L494.575 633.608M680.595 284.055L476.105 1.1623M680.595 284.055L521.296 184.041M418.667 335.195L494.575 633.608M418.667 335.195L521.296 184.041M418.667 335.195L476.105 1.1623M418.667 335.195L309.061 160.647M418.667 335.195L255.856 442.167M494.575 633.608L255.856 442.167M494.575 633.608L225.956 645.811M476.105 1.1623L521.296 184.041M476.105 1.1623L309.061 160.647M476.105 1.1623L130.829 133.079M309.061 160.647L130.829 133.079M130.829 133.079L255.856 442.167M130.829 133.079L104.786 348.328M130.829 133.079L1.06005 445.811M255.856 442.167L104.786 348.328M255.856 442.167L225.956 645.811M104.786 348.328L225.956 645.811M104.786 348.328L1.06005 445.811M225.956 645.811L1.06005 445.811" stroke="white" stroke-opacity="0.17" strokeWidth="0.779313"/>
    </svg>
    