<svg width="496" height="505" viewBox="0 0 496 505" fill="none" xmlns="http://www.w3.org/2000/svg">
    <circle cx="162.683" cy="44.8002" r="44.0379" fill="#16224A" stroke="url(#paint0_linear_0_1)" strokeWidth="1.5238"/>
    <circle cx="326.636" cy="44.8002" r="44.0379" fill="#16224A" stroke="url(#paint1_linear_0_1)" strokeWidth="1.5238"/>
    <path d="M163.05 22.9396L168.992 24.7335L178.074 26.7516L188.5 34.2634L181.885 43.9055L178.074 40.8784V68.5713H147.802L147.241 40.8784L143.766 43.9055L137.375 33.1423L147.69 26.7516L156.771 24.7335L163.05 22.9396ZM163.05 22.9396V19.1276L164.283 18.6792L165.404 17.4459L165.629 15.652L165.068 14.3066L163.61 13.4097H162.041L160.807 14.0824L160.247 15.0914L160.023 16.1005" stroke="white" strokeWidth="2.15265" strokeLinecap="round" strokeLinejoin="round"/>
    <path d="M156.883 24.7334L157.331 26.1909L157.892 27.6484L158.901 28.7696L160.246 29.7787L162.04 30.4514H163.946L165.74 29.7787L167.085 28.7696L167.982 27.6484L168.543 26.1909L168.991 24.7334" stroke="white" strokeWidth="2.15265" strokeLinecap="round" strokeLinejoin="round"/>
    <path d="M132.193 77.7144L75.5078 135.619" stroke="url(#paint2_linear_0_1)" strokeWidth="3.65712"/>
    <path d="M429.691 369.384L365.195 434.717" stroke="url(#paint3_linear_0_1)" strokeWidth="3.65712" strokeLinecap="round"/>
    <path d="M45.0391 213.333V301.408" stroke="url(#paint4_linear_0_1)" strokeWidth="3.65712"/>
    <path d="M68.6875 369.384L131.508 430.529" stroke="url(#paint5_linear_0_1)" strokeWidth="3.65712"/>
    <circle cx="44.7998" cy="332.098" r="44.0379" fill="#16224A" stroke="url(#paint6_linear_0_1)" strokeWidth="1.5238"/>
    <path d="M36.9611 305.583H33.3465L31.2983 306.547L30.0934 308.234L29.25 310.523V355.344L30.5754 357.875L32.5031 359.2L34.9129 359.802H55.5161L57.6848 359.2L59.3717 357.634L60.3356 355.344L60.0946 310.523L59.3717 308.234L58.1668 306.909L55.6366 305.583H52.5039M36.9611 305.583L39.4914 309.198H49.6122L52.5039 305.583M36.9611 305.583H52.5039M43.106 355.585H46.2386" stroke="white" strokeWidth="1.96993" strokeLinecap="round" strokeLinejoin="round"/>
    <path d="M35.6328 332.452H38.2835M35.6328 341.368H40.8137V336.548H35.6328V341.368Z" stroke="white" strokeWidth="1.96993" strokeLinecap="round" strokeLinejoin="round"/>
    <path d="M44.6693 323.416V326.428M35.6328 328.596H40.8137V323.657H35.6328V328.596Z" stroke="white" strokeWidth="1.96993" strokeLinecap="round" strokeLinejoin="round"/>
    <path d="M44.6656 329.922V332.451H42.0156" stroke="white" strokeWidth="1.96993" strokeLinecap="round" strokeLinejoin="round"/>
    <path d="M35.5156 332.572H38.2868" stroke="white" strokeWidth="1.96993" strokeLinecap="round" strokeLinejoin="round"/>
    <path d="M44.6562 336.066V337.994" stroke="white" strokeWidth="1.96993" strokeLinecap="round" strokeLinejoin="round"/>
    <path d="M44.4297 341.488H47.4419" stroke="white" strokeWidth="1.96993" strokeLinecap="round" strokeLinejoin="round"/>
    <path d="M50.9297 341.609H53.7009V337.754" stroke="white" strokeWidth="1.96993" strokeLinecap="round" strokeLinejoin="round"/>
    <path d="M48.5312 337.753V335.223" stroke="white" strokeWidth="1.96993" strokeLinecap="round" strokeLinejoin="round"/>
    <path d="M49.8594 335.102V332.452" stroke="white" strokeWidth="1.96993" strokeLinecap="round" strokeLinejoin="round"/>
    <path d="M53.7109 332.211V333.897" stroke="white" strokeWidth="1.96993" strokeLinecap="round" strokeLinejoin="round"/>
    <path d="M48.6484 328.717V323.656H53.7089V328.717H48.6484Z" stroke="white" strokeWidth="1.96993" strokeLinecap="round" strokeLinejoin="round"/>
    <path opacity="0.8" d="M182.513 93.8662L314.06 410.519M182.513 93.8662V410.519M182.513 93.8662L405.673 317.497M182.513 93.8662L90.4297 317.497M182.513 93.8662L405.673 186.419M314.06 410.519V93.8662M314.06 410.519L90.4297 186.419M314.06 410.519L405.673 186.419M314.06 410.519L90.4297 317.497M314.06 93.8662L90.4297 317.497M314.06 93.8662L405.673 317.497M314.06 93.8662L90.4297 186.419M314.06 93.8662L182.513 410.519M90.4297 317.497H405.673M90.4297 317.497L405.673 186.419M405.673 317.497L90.4297 186.419M405.673 317.497L182.513 410.519M90.4297 186.419H405.673M90.4297 186.419L182.513 411.392M182.513 410.519L405.673 186.419" stroke="url(#paint7_linear_0_1)" strokeWidth="1.38055"/>
    <circle cx="166.331" cy="459.274" r="44.0379" fill="#16224A" stroke="url(#paint8_linear_0_1)" strokeWidth="1.5238"/>
    <path d="M146.375 448.893V468.062L148.106 470.325L149.836 471.257L152.499 471.923H156.759L158.889 470.858L160.752 469.127L162.35 467.53H171.801L174.064 469.127L176.061 470.325L178.591 471.923H184.98L187.51 469.793L188.708 467.53V463.936V449.958L187.51 447.695L185.513 446.097H149.437L148.106 446.763L146.641 448.626" stroke="white" strokeWidth="2.63528" strokeLinecap="round" strokeLinejoin="round"/>
    <path d="M162.875 454.351H171.794" stroke="white" strokeWidth="2.63528" strokeLinecap="round" strokeLinejoin="round"/>
    <path d="M188.844 449.958L191.772 450.756L194.568 451.555L195.766 453.152V463.536L194.568 465.932L191.772 466.465L188.844 466.997" stroke="white" strokeWidth="2.63528" strokeLinecap="round" strokeLinejoin="round"/>
    <path d="M146.244 450.224L143.714 450.757L141.185 451.289L139.721 451.822L138.922 453.552V464.202L140.12 465.933L141.185 466.332L143.448 466.998L146.244 467.53" stroke="white" strokeWidth="2.63528" strokeLinecap="round" strokeLinejoin="round"/>
    <circle cx="45.6435" cy="167.923" r="44.0379" fill="#16224A" stroke="url(#paint9_linear_0_1)" strokeWidth="1.5238"/>
    <path d="M23.3906 179.146V155.379C23.3906 154.783 23.7078 154.231 24.2235 153.931L44.9037 141.901C45.4256 141.597 46.0703 141.598 46.5915 141.903L67.1684 153.931C67.6823 154.231 67.9982 154.782 67.9982 155.377V179.148C67.9982 179.741 67.6845 180.29 67.1735 180.591L46.5967 192.719C46.0729 193.028 45.423 193.028 44.8986 192.721L24.2183 180.591C23.7056 180.29 23.3906 179.74 23.3906 179.146Z" stroke="white" strokeWidth="1.99266" strokeLinecap="round" strokeLinejoin="round"/>
    <path d="M30.2734 172.689V163.8C30.2734 163.129 30.8174 162.585 31.4883 162.585V162.585C31.9875 162.585 32.4359 162.89 32.6188 163.355L36.0057 171.959C36.1789 172.4 36.6037 172.689 37.0766 172.689V172.689C37.7123 172.689 38.2276 172.174 38.2276 171.538V162.585" stroke="white" strokeWidth="1.99266" strokeLinecap="round" strokeLinejoin="round"/>
    <path d="M44.0312 172.689V168.174M51.018 162.262H45.7065C44.7813 162.262 44.0312 163.012 44.0312 163.937V168.174M44.0312 168.174H49.1907" stroke="white" strokeWidth="1.99266" strokeLinecap="round" strokeLinejoin="round"/>
    <path d="M58.764 172.581V163.83C58.764 162.905 58.014 162.155 57.0888 162.155H55.1094H62.3111" stroke="white" strokeWidth="1.99266" strokeLinecap="round" strokeLinejoin="round"/>
    <path d="M211.218 239.379H204.251C204.251 239.787 204.251 240.138 204.251 240.49C204.251 244.875 204.283 249.261 204.236 253.644C204.205 255.501 203.447 257.272 202.125 258.577C200.802 259.881 199.021 260.614 197.163 260.618C195.321 260.634 193.546 259.922 192.226 258.636C190.906 257.351 190.147 255.596 190.115 253.754C190.052 249.307 190.095 244.865 190.091 240.421C190.091 240.077 190.091 239.733 190.091 239.361H183.007C182.99 239.666 182.968 239.872 182.968 240.077C182.968 244.581 182.93 249.086 182.976 253.589C182.985 255.616 183.429 257.618 184.276 259.459C185.124 261.3 186.356 262.938 187.889 264.263C189.423 265.588 191.223 266.57 193.168 267.141C195.112 267.712 197.157 267.86 199.163 267.575C205.571 266.721 210.928 261.178 211.223 254.725C211.452 249.724 211.306 244.706 211.321 239.697C211.303 239.586 211.269 239.478 211.218 239.379" fill="white"/>
    <path d="M298.932 254.793C298.626 252.067 298.869 249.28 298.869 246.433H305.761V239.299H298.733V225.212H291.628V225.899C291.628 235.057 291.554 244.216 291.655 253.372C291.723 259.363 294.562 263.767 299.955 266.426C301.768 267.299 303.757 267.741 305.769 267.717V260.709C305.576 260.672 305.383 260.624 305.188 260.602C301.937 260.231 299.294 258.02 298.932 254.793" fill="white"/>
    <path d="M274.745 239.618C274.731 248.652 274.731 257.685 274.745 266.718C274.745 267.035 274.772 267.352 274.789 267.704H281.823V246.394H288.822V239.286H281.844C281.817 237.851 282.256 236.446 283.093 235.28C283.743 234.337 284.61 233.564 285.622 233.028C286.633 232.491 287.759 232.206 288.904 232.198V225.019C287.729 225.138 286.562 225.323 285.409 225.574C282.3 226.356 279.551 228.173 277.612 230.725C275.674 233.278 274.663 236.414 274.745 239.618" fill="white"/>
    <path d="M253.144 252.563C253.144 243.799 253.144 235.034 253.144 226.269V225.182H246.071V226.157C246.071 235.16 246.072 244.164 246.075 253.167C245.994 256.218 246.901 259.213 248.66 261.707C250.419 264.201 252.937 266.059 255.839 267.006C257.229 267.521 258.708 267.758 260.19 267.702V260.686C255.393 259.984 253.144 257.371 253.144 252.564" fill="white"/>
    <path d="M270.833 239.398H263.891V267.711H270.833V239.398Z" fill="white"/>
    <path d="M313.252 262.303H308.383V267.762H313.252V262.303Z" fill="white"/>
    <path d="M242.417 248.431C241.219 245.323 238.984 242.725 236.089 241.077C233.921 239.862 231.473 239.237 228.988 239.262C226.503 239.288 224.068 239.964 221.925 241.224C219.783 242.483 218.008 244.281 216.776 246.44C215.545 248.599 214.9 251.042 214.906 253.527C214.974 259.91 214.958 266.4 214.943 272.675C214.937 275.37 214.93 278.159 214.93 280.897V281.935H222.105V266.062C222.457 266.194 222.793 266.328 223.12 266.458C223.85 266.767 224.598 267.031 225.361 267.247C226.458 267.544 227.584 267.72 228.72 267.773C231.062 267.834 233.383 267.317 235.478 266.267C237.573 265.218 239.377 263.669 240.731 261.757C242.085 259.845 242.947 257.629 243.241 255.304C243.535 252.98 243.252 250.619 242.417 248.43M238.717 254.087C229.333 254.251 229.244 254.359 229.107 265.681H228.99C228.853 254.359 228.763 254.251 219.379 254.087V253.97C228.763 253.805 228.852 253.697 228.99 242.375H229.107C229.243 253.697 229.333 253.805 238.717 253.97V254.087Z" fill="white"/>
    <circle cx="326.229" cy="459.414" r="44.0379" fill="#16224A" stroke="url(#paint10_linear_0_1)" strokeWidth="1.5238"/>
    <path d="M306.672 461.04H344.444" stroke="white" strokeWidth="1.82856" strokeLinecap="round" strokeLinejoin="round"/>
    <path d="M345.11 454.772H306.266V452.792L306.513 450.813L307.338 448.339L308.657 446.03L310.637 443.308L313.193 440.916L316.41 439.02L319.379 437.947L322.76 437.37H329.853L332.987 438.195L336.121 439.432L338.347 440.916L340.492 442.978L342.223 445.452L344.038 448.586L345.11 451.72V454.772Z" stroke="white" strokeWidth="1.82856" strokeLinecap="round" strokeLinejoin="round"/>
    <path d="M318.047 445.7V448.008" stroke="white" strokeWidth="1.82856" strokeLinecap="round" strokeLinejoin="round"/>
    <path d="M325.641 445.617V447.926" stroke="white" strokeWidth="1.82856" strokeLinecap="round" strokeLinejoin="round"/>
    <path d="M333.141 445.535V447.843" stroke="white" strokeWidth="1.82856" strokeLinecap="round" strokeLinejoin="round"/>
    <path d="M306.181 467.308H327.212L333.15 471.596L339.253 467.308H345.108L345.273 471.349L344.449 473.328L343.294 474.565L340.902 476.132H310.305L307.996 474.895L306.511 472.916L305.852 471.349V467.308" stroke="white" strokeWidth="1.82856" strokeLinecap="round" strokeLinejoin="round"/>
    <path d="M326.462 35.3788V50.7432M326.462 35.3788L325.349 34.3768L324.458 33.4861L323.345 33.0407H322.343L321.341 33.4861L320.339 34.1541L319.114 35.3788M326.462 35.3788L327.91 34.1541L328.689 33.4861L329.914 33.0407L331.027 33.2634L331.918 33.4861L332.808 34.1541L333.81 35.3788M326.462 50.7432L325.572 51.8566L324.792 52.5246L323.902 52.8586L322.788 53.0813H321.786L320.895 52.5246L320.339 51.8566L319.559 50.9659L316.219 54.0833L322.12 48.6278L322.788 47.8485L323.345 46.2898V44.9537L323.122 43.729L322.343 42.393L321.341 41.391L320.339 41.1683L318.891 41.391L317.667 42.393L316.665 44.1744L315.997 44.9537L314.883 46.2898L312.657 48.1825L311.766 48.8505M326.462 50.7432L326.908 51.1886L327.576 51.8566L328.689 52.5246L329.691 53.0813L331.027 52.8586L332.14 52.5246L332.808 52.1906L333.81 51.1886V49.8525V35.3788M311.766 48.8505L310.875 49.5185V49.4072L309.873 50.2979L309.316 51.2999L308.982 51.9679L308.648 53.5266V55.308V56.7554L308.982 58.3141L309.316 59.5388L309.873 60.9862L310.652 62.0996L311.989 63.7696L312.879 64.883V69.2251L313.325 70.1158L313.659 70.8951L314.438 71.6745L315.44 72.3425H336.037L337.039 71.6745L337.707 70.8951L338.264 69.5591V64.883L338.932 63.9923L339.711 63.1016L340.379 61.8769L341.047 60.3182L341.493 58.7595V49.5185L344.61 24.0225V22.5751L343.942 21.573L343.385 21.1277L342.606 20.571L341.159 20.3483L340.045 20.571L339.043 21.1277L337.93 22.5751L333.81 35.3788M311.766 48.8505L309.762 21.573L309.984 20.0143L310.541 19.0123L311.209 18.3443L312.211 17.8989L312.991 17.6763H313.993L315.106 17.8989L316.108 19.0123L316.442 20.0143L319.114 33.9314V35.3788M319.114 40.6116V35.3788" stroke="white" strokeWidth="2.13332" strokeLinecap="round" strokeLinejoin="round"/>
    <path d="M207.469 45.105H280.611" stroke="url(#paint11_linear_0_1)" strokeWidth="3.65712" strokeLinecap="round" strokeLinejoin="round"/>
    <path d="M366.031 67.8462L428.014 124.803" stroke="url(#paint12_linear_0_1)" strokeWidth="3.65712" strokeLinecap="round" strokeLinejoin="round"/>
    <path d="M458.172 207.726L457.334 287.298" stroke="url(#paint13_linear_0_1)" strokeWidth="3.65712" strokeLinecap="round" strokeLinejoin="round"/>
    <path d="M212.352 463.845L281.441 464.024" stroke="url(#paint14_linear_0_1)" strokeWidth="3.65712" strokeLinecap="round" strokeLinejoin="round"/>
    <circle cx="450.206" cy="329.585" r="44.0379" fill="#16224A" stroke="url(#_888)" strokeWidth="1.5238"/>
    <path d="M424.672 343.917V314.439C424.672 313.79 425.198 313.264 425.847 313.264H472.915C473.564 313.264 474.091 313.79 474.091 314.439V343.917C474.091 344.566 473.564 345.093 472.915 345.093H425.847C425.198 345.093 424.672 344.566 424.672 343.917Z" stroke="white" strokeWidth="2.51281"/>
    <circle cx="450.206" cy="162.063" r="44.0379" fill="#16224A" stroke="url(#paint16_linear_0_1_kkk)" strokeWidth="1.5238"/>
    <path d="M438.917 191.13L420.405 172.37C420.267 172.231 420.268 172.007 420.407 171.868L457.407 134.994C457.494 134.907 457.62 134.872 457.739 134.9L472.924 138.48C473.054 138.511 473.157 138.613 473.188 138.743L476.766 153.673C476.795 153.793 476.759 153.92 476.671 154.008L439.422 191.132C439.282 191.271 439.056 191.27 438.917 191.13Z" stroke="white" strokeWidth="1.26748"/>
    <circle cx="467.436" cy="144.234" r="2.6617" stroke="white" strokeWidth="1.26748"/>
    <path d="M435.775 176.345L434.057 178.092L433.086 177.155L434.528 175.688C434.782 175.43 434.958 175.186 435.055 174.956C435.149 174.724 435.172 174.505 435.123 174.298C435.075 174.085 434.958 173.887 434.771 173.703C434.559 173.495 434.348 173.367 434.138 173.32C433.93 173.269 433.714 173.298 433.49 173.408C433.268 173.515 433.029 173.7 432.772 173.961L431.816 174.933L437.52 180.541L436.142 181.943L429.341 175.255L431.674 172.882C432.063 172.486 432.448 172.169 432.829 171.932C433.213 171.69 433.588 171.536 433.955 171.468C434.322 171.4 434.679 171.423 435.026 171.538C435.37 171.649 435.7 171.861 436.018 172.173C436.298 172.449 436.494 172.767 436.605 173.127C436.72 173.485 436.718 173.872 436.601 174.29C436.487 174.705 436.225 175.137 435.815 175.585L435.775 176.345ZM438.701 179.341L436.666 181.41L436.11 179.789L437.608 178.266C437.85 178.02 438.008 177.781 438.083 177.548C438.156 177.313 438.16 177.091 438.096 176.881C438.033 176.672 437.912 176.48 437.735 176.305C437.535 176.109 437.329 175.973 437.115 175.898C436.904 175.82 436.688 175.815 436.466 175.885C436.242 175.952 436.011 176.105 435.775 176.345L434.448 177.695L433.495 176.739L435.148 175.058L435.844 175.107C436.245 174.687 436.646 174.426 437.046 174.323C437.447 174.215 437.824 174.221 438.177 174.342C438.533 174.459 438.848 174.653 439.122 174.922C439.558 175.351 439.832 175.807 439.944 176.291C440.053 176.772 440.002 177.27 439.79 177.784C439.581 178.296 439.218 178.814 438.701 179.341ZM435.349 169.145L437.843 166.608C438.354 166.088 438.872 165.717 439.395 165.497C439.921 165.273 440.436 165.21 440.94 165.308C441.445 165.405 441.919 165.673 442.365 166.111C442.729 166.469 442.981 166.839 443.12 167.221C443.259 167.597 443.306 167.982 443.26 168.378C443.213 168.768 443.095 169.163 442.904 169.563L442.701 170.236L440.533 172.441L439.43 171.375L441.043 169.736C441.285 169.49 441.442 169.243 441.514 168.995C441.586 168.747 441.584 168.507 441.507 168.273C441.434 168.035 441.295 167.816 441.09 167.614C440.872 167.399 440.643 167.254 440.405 167.179C440.166 167.104 439.924 167.108 439.678 167.19C439.431 167.272 439.186 167.438 438.941 167.687L437.824 168.822L443.528 174.431L442.15 175.832L435.349 169.145ZM445.889 172.03L441.333 170.6L442.779 169.11L447.298 170.466L447.364 170.53L445.889 172.03ZM445.258 161.394L449.077 168.788L447.612 170.278L443.295 161.063L444.228 160.114L445.258 161.394ZM452.407 165.401L444.945 161.711L443.635 160.717L444.577 159.759L453.877 163.906L452.407 165.401ZM449.793 162.995L450.89 164.075L447.358 167.667L446.26 166.588L449.793 162.995ZM453.139 151.052L459.94 157.74L458.562 159.141L451.316 157.391L455.875 161.874L454.497 163.275L447.696 156.587L449.074 155.186L456.329 156.936L451.765 152.449L453.139 151.052ZM463.192 154.432L461.736 155.913L460.652 154.829L462.099 153.357C462.461 152.99 462.683 152.599 462.766 152.184C462.846 151.767 462.788 151.336 462.593 150.893C462.401 150.447 462.077 150 461.622 149.553L461.291 149.227C460.942 148.884 460.598 148.62 460.26 148.434C459.925 148.246 459.597 148.134 459.275 148.1C458.954 148.065 458.645 148.108 458.35 148.228C458.051 148.345 457.769 148.539 457.502 148.81L456.005 150.333L454.907 149.253L456.404 147.73C456.852 147.276 457.338 146.936 457.864 146.713C458.391 146.483 458.933 146.37 459.492 146.375C460.051 146.379 460.604 146.503 461.149 146.745C461.695 146.981 462.211 147.338 462.696 147.816L463.019 148.133C463.502 148.608 463.867 149.117 464.116 149.662C464.367 150.203 464.5 150.754 464.514 151.312C464.528 151.865 464.425 152.41 464.204 152.946C463.983 153.476 463.646 153.971 463.192 154.432ZM455.715 148.431L462.517 155.119L461.139 156.52L454.337 149.832L455.715 148.431Z" fill="white"/>
    <defs>
    <linearGradient id="paint0_linear_0_1" x1="162.683" y1="0.000488281" x2="162.683" y2="89.6" gradientUnits="userSpaceOnUse">
    <stop stopColor="#7500FF"/>
    <stop offset="1" stopColor="#0099FF" stopOpacity="0.93"/>
    </linearGradient>
    <linearGradient id="paint1_linear_0_1" x1="326.636" y1="0.000488281" x2="326.636" y2="89.6" gradientUnits="userSpaceOnUse">
    <stop stopColor="#7500FF"/>
    <stop offset="1" stopColor="#0099FF" stopOpacity="0.93"/>
    </linearGradient>
    <linearGradient id="paint2_linear_0_1" x1="103.851" y1="77.7144" x2="103.851" y2="135.619" gradientUnits="userSpaceOnUse">
    <stop stopColor="#7500FF"/>
    <stop offset="1" stopColor="#0099FF" stopOpacity="0.93"/>
    </linearGradient>
    <linearGradient id="paint3_linear_0_1" x1="397.443" y1="369.384" x2="397.443" y2="434.717" gradientUnits="userSpaceOnUse">
    <stop stopColor="#7500FF"/>
    <stop offset="1" stopColor="#0099FF" stopOpacity="0.93"/>
    </linearGradient>
    <linearGradient id="paint4_linear_0_1" x1="45.5391" y1="213.333" x2="45.5391" y2="301.408" gradientUnits="userSpaceOnUse">
    <stop stopColor="#7500FF"/>
    <stop offset="1" stopColor="#0099FF" stopOpacity="0.93"/>
    </linearGradient>
    <linearGradient id="paint5_linear_0_1" x1="100.098" y1="369.384" x2="100.098" y2="430.529" gradientUnits="userSpaceOnUse">
    <stop stopColor="#7500FF"/>
    <stop offset="1" stopColor="#0099FF" stopOpacity="0.93"/>
    </linearGradient>
    <linearGradient id="paint6_linear_0_1" x1="44.7998" y1="287.298" x2="44.7998" y2="376.898" gradientUnits="userSpaceOnUse">
    <stop stopColor="#7500FF"/>
    <stop offset="1" stopColor="#0099FF" stopOpacity="0.93"/>
    </linearGradient>
    <linearGradient id="paint7_linear_0_1" x1="231.312" y1="93.8662" x2="231.312" y2="413.338" gradientUnits="userSpaceOnUse">
    <stop stopColor="#5F3195"/>
    <stop offset="1" stopColor="#47A2DF" stopOpacity="0.46"/>
    </linearGradient>
    <linearGradient id="paint8_linear_0_1" x1="166.331" y1="414.474" x2="166.331" y2="504.074" gradientUnits="userSpaceOnUse">
    <stop stopColor="#7500FF"/>
    <stop offset="1" stopColor="#0099FF" stopOpacity="0.93"/>
    </linearGradient>
    <linearGradient id="paint9_linear_0_1" x1="45.6435" y1="123.124" x2="45.6435" y2="212.723" gradientUnits="userSpaceOnUse">
    <stop stopColor="#7500FF"/>
    <stop offset="1" stopColor="#0099FF" stopOpacity="0.93"/>
    </linearGradient>
    <linearGradient id="paint10_linear_0_1" x1="326.229" y1="414.614" x2="326.229" y2="504.214" gradientUnits="userSpaceOnUse">
    <stop stopColor="#7500FF"/>
    <stop offset="1" stopColor="#0099FF" stopOpacity="0.93"/>
    </linearGradient>
    <linearGradient id="paint11_linear_0_1" x1="244.04" y1="45.105" x2="244.04" y2="46.105" gradientUnits="userSpaceOnUse">
    <stop stopColor="#7500FF"/>
    <stop offset="1" stopColor="#0099FF" stopOpacity="0.93"/>
    </linearGradient>
    <linearGradient id="paint12_linear_0_1" x1="397.023" y1="96.3247" x2="396.346" y2="97.0611" gradientUnits="userSpaceOnUse">
    <stop stopColor="#7500FF"/>
    <stop offset="1" stopColor="#0099FF" stopOpacity="0.93"/>
    </linearGradient>
    <linearGradient id="paint13_linear_0_1" x1="457.753" y1="247.512" x2="456.753" y2="247.502" gradientUnits="userSpaceOnUse">
    <stop stopColor="#7500FF"/>
    <stop offset="1" stopColor="#0099FF" stopOpacity="0.93"/>
    </linearGradient>
    <linearGradient id="paint14_linear_0_1" x1="246.896" y1="463.935" x2="246.894" y2="464.935" gradientUnits="userSpaceOnUse">
    <stop stopColor="#7500FF"/>
    <stop offset="1" stopColor="#0099FF" stopOpacity="0.93"/>
    </linearGradient>
    <linearGradient id="_888" x1="450.206" y1="284.786" x2="450.206" y2="374.385" gradientUnits="userSpaceOnUse">
    <stop stopColor="#7500FF"/>
    <stop offset="1" stopColor="#0099FF" stopOpacity="0.93"/>
    </linearGradient>
    <linearGradient id="paint16_linear_0_1_kkk" x1="450.206" y1="117.264" x2="450.206" y2="206.863" gradientUnits="userSpaceOnUse">
    <stop stopColor="#7500FF"/>
    <stop offset="1" stopColor="#0099FF" stopOpacity="0.93"/>
    </linearGradient>
    </defs>
    </svg>
    